HIERARCHY
ROOT Hips
{
  OFFSET -35.2597 29.1586 114.425
  CHANNELS 6 Xposition Yposition Zposition Zrotation Xrotation Yrotation
  JOINT LeftUpLeg
  {
    OFFSET 8.64259 1.95398 -2.38835
    CHANNELS 3 Zrotation Xrotation Yrotation
    JOINT LeftLeg
    {
      OFFSET 43.7702 0 0
      CHANNELS 3 Zrotation Xrotation Yrotation
      JOINT LeftFoot
      {
        OFFSET 40.6238 0 0
        CHANNELS 3 Zrotation Xrotation Yrotation
        JOINT LeftToeBase
        {
          OFFSET 12.7242 0 0
          CHANNELS 3 Zrotation Xrotation Yrotation
          End Site
          {
            OFFSET 0 0 0
          }
        }
      }
    }
  }
  JOINT RightUpLeg
  {
    OFFSET -8.2249 1.95398 -2.59336
    CHANNELS 3 Zrotation Xrotation Yrotation
    JOINT RightLeg
    {
      OFFSET 43.5653 0 0
      CHANNELS 3 Zrotation Xrotation Yrotation
      JOINT RightFoot
      {
        OFFSET 40.6238 0 0
        CHANNELS 3 Zrotation Xrotation Yrotation
        JOINT RightToeBase
        {
          OFFSET 12.7242 0 0
          CHANNELS 3 Zrotation Xrotation Yrotation
          End Site
          {
            OFFSET 0 0 0
          }
        }
      }
    }
  }
  JOINT Spine
  {
    OFFSET 0.165834 0.87714 6.61349
    CHANNELS 3 Zrotation Xrotation Yrotation
    JOINT Spine1
    {
      OFFSET 7.38963 1.71661e-005 0
      CHANNELS 3 Zrotation Xrotation Yrotation
      JOINT Spine2
      {
        OFFSET 11.9445 1.14441e-005 0
        CHANNELS 3 Zrotation Xrotation Yrotation
        JOINT Spine3
        {
          OFFSET 14.7254 4.19617e-005 0
          CHANNELS 3 Zrotation Xrotation Yrotation
          JOINT Spine4
          {
            OFFSET 10.9679 0 0
            CHANNELS 3 Zrotation Xrotation Yrotation
            JOINT RightShoulder
            {
              OFFSET 2.46616 -1.6653 3.69651
              CHANNELS 3 Zrotation Xrotation Yrotation
              JOINT RightArm
              {
                OFFSET 13.0012 0 0
                CHANNELS 3 Zrotation Xrotation Yrotation
                JOINT RightForeArm
                {
                  OFFSET 28.7848 1.62311e-005 0
                  CHANNELS 3 Zrotation Xrotation Yrotation
                  JOINT RightHand
                  {
                    OFFSET 26.5688 1.62095e-005 0
                    CHANNELS 3 Zrotation Xrotation Yrotation
                    End Site
                    {
                      OFFSET 0 0 0
                    }
                  }
                }
              }
            }
            JOINT LeftShoulder
            {
              OFFSET 2.38034 -1.29275 -3.7523
              CHANNELS 3 Zrotation Xrotation Yrotation
              JOINT LeftArm
              {
                OFFSET 16.3182 6.07031e-005 0
                CHANNELS 3 Zrotation Xrotation Yrotation
                JOINT LeftForeArm
                {
                  OFFSET 27.0901 0 0
                  CHANNELS 3 Zrotation Xrotation Yrotation
                  JOINT LeftHand
                  {
                    OFFSET 24.5451 1.51738e-005 0
                    CHANNELS 3 Zrotation Xrotation Yrotation
                    End Site
                    {
                      OFFSET 0 0 0
                    }
                  }
                }
              }
            }
            JOINT Neck
            {
              OFFSET 5.0226 -0.0266342 0
              CHANNELS 3 Zrotation Xrotation Yrotation
              JOINT Head
              {
                OFFSET 6.69364 2.86102e-005 0
                CHANNELS 3 Zrotation Xrotation Yrotation
                End Site
                {
                  OFFSET 0 0 0
                }
              }
            }
          }
        }
      }
    }
  }
}
MOTION
Frames:	15
Frame Time:	0.0416667
34.5738 8.90664 42.1147 5.52049 -11.6949 0.961539 -172.626 -6.70455 96.6646 -21.4152 14.6675 2.70537 84.9368 18.722 -1.73036 21.3706 -7.68143 6.52168 169.01 -9.44271 85.9148 -20.8494 -3.04265 1.98391 80.6172 -13.723 -0.335547 41.7568 -5.2922 -0.386475 0.16856 5.97208 -90.2541 14.93 0.207343 -0.541589 3.25891 0.183306 -0.550195 -19.2757 0.360518 -0.454253 0.736962 0.360522 -0.454243 93.7561 -18.0271 -103.246 31.567 2.33032 71.7759 -49.2619 12.5571 -104.822 -112.963 14.515 -14.8638 -85.7767 -33.2427 82.1506 -20.6395 -8.71751 69.447 53.1906 -30.9359 -113.252 86.3755 -15.7393 -20.3634 44.4785 -3.79688 -3.09083 -3.81999 -1.90372 -0.473462 
34.5418 8.88312 42.1191 5.60104 -11.7684 0.886295 -172.288 -6.61669 96.8245 -21.6919 15.0481 2.47292 84.5533 18.5025 -1.45685 21.5004 -7.5651 6.46126 169.006 -9.47305 85.8141 -21.0443 -2.37071 1.94476 81.0933 -13.556 0.975854 41.4419 -5.07314 -0.951821 0.161212 5.98291 -90.2561 14.9083 0.191871 -0.54321 3.23723 0.167778 -0.551146 -19.2973 0.346259 -0.460438 0.715298 0.346258 -0.460439 93.8225 -17.8331 -103.163 31.0717 3.39186 72.6388 -51.4136 13.1936 -104.494 -112.482 13.374 -14.1702 -85.8216 -33.4912 82.1196 -20.5266 -9.19064 70.2479 52.8867 -31.4204 -113.746 85.3404 -16.0674 -20.9921 41.6387 -3.98057 -4.3244 -0.0295321 -1.5533 1.65962 
34.5178 8.87752 42.0943 5.51245 -11.7779 0.804403 -172.151 -6.7719 96.9043 -21.306 15.1813 2.32182 85.2089 18.8516 -2.00426 20.4289 -8.47638 6.85377 168.988 -9.30388 85.747 -21.3456 -2.57713 1.93013 81.0433 -13.5383 0.607482 41.5979 -5.16722 -0.765258 0.181699 6.00139 -90.2418 14.8714 0.239588 -0.521373 3.20038 0.216409 -0.531417 -19.3344 0.385199 -0.425269 0.678307 0.385203 -0.425276 93.9639 -17.8709 -102.798 30.5318 4.37189 73.4707 -53.1588 13.8783 -104.345 -111.876 12.1139 -13.4146 -85.9192 -33.028 81.8401 -20.5499 -9.07603 70.0326 52.749 -31.2477 -113.741 85.7216 -15.9224 -20.7336 40.7983 -4.25605 -5.34892 1.37399 -1.29472 3.13578 
34.5337 8.90447 42.0998 5.64751 -11.7627 0.780271 -172.272 -6.69223 96.8144 -21.3728 15.1207 2.37584 85.0948 18.7767 -2.01666 20.5611 -8.50943 7.03726 168.937 -9.2645 85.6779 -21.4018 -2.31271 1.96525 81.1738 -13.4703 1.03087 41.5446 -5.18274 -0.531511 0.152489 5.99193 -90.2592 14.8902 0.173128 -0.546592 3.21914 0.148896 -0.553676 -19.3154 0.32939 -0.469304 0.69726 0.32939 -0.469294 93.9015 -17.6649 -103.036 30.3697 4.66773 74.3274 -54.5639 14.4639 -104.226 -111.656 11.278 -12.8653 -85.8733 -33.7244 82.0744 -20.4819 -9.55856 70.1934 52.835 -31.4263 -113.786 85.31 -16.1829 -21.1209 40.7732 -4.10782 -5.16547 1.21581 -1.25131 3.07649 
34.5159 8.88664 42.103 5.66577 -11.7662 0.768616 -172.183 -6.73567 96.8684 -21.3257 15.3332 2.32884 85.1246 18.8093 -1.94383 20.6185 -8.50706 7.09094 168.979 -9.26957 85.7049 -21.4152 -2.21471 1.92146 81.1903 -13.4575 1.14558 41.7193 -5.16369 -1.10098 0.141246 5.98588 -90.2629 14.9022 0.149047 -0.55044 3.23109 0.124674 -0.556486 -19.3034 0.307587 -0.480211 0.709238 0.307585 -0.480213 93.8757 -17.6778 -103.094 30.0571 5.26297 75.2381 -55.5149 14.9281 -104.183 -110.546 11.3441 -13.0761 -85.7169 -33.8986 82.3993 -20.4098 -9.99512 70.7342 53.1579 -31.8563 -113.81 84.0401 -16.5753 -21.9085 40.9694 -3.98949 -4.83075 0.858538 -1.31179 2.65729 
34.5084 8.87462 42.1016 5.7099 -11.7104 0.793314 -172.247 -6.61465 96.8705 -21.4287 15.3583 2.37426 85.0601 18.7367 -2.0013 20.6933 -8.28443 6.8118 168.997 -9.26836 85.7681 -21.3591 -2.31758 1.93673 81.0749 -13.5023 0.751238 41.5735 -5.19935 -0.501075 0.120303 5.9666 -90.3006 14.9402 0.0887765 -0.617649 3.26909 0.0615122 -0.620961 -19.2651 0.270296 -0.562408 0.747587 0.270297 -0.562427 93.8381 -17.2948 -103.347 30.7845 3.92343 73.5687 -53.1777 13.9434 -104.387 -111.805 12.8778 -13.9336 -85.9171 -34.3209 82.1204 -20.3664 -10.6441 70.848 52.7993 -31.5744 -113.898 84.2814 -16.9127 -22.1934 41.0611 -3.69061 -4.36069 0.658896 -1.26661 2.48337 
34.4846 8.88139 42.0907 5.65233 -11.7646 0.739203 -172.218 -6.73033 96.8432 -21.3146 15.3979 2.33888 84.9719 18.7911 -1.75943 20.6319 -8.11977 6.48797 168.994 -9.25087 85.7249 -21.4576 -2.2544 1.91178 81.1415 -13.5074 0.854993 41.7487 -5.25388 -0.608063 0.119029 5.9515 -90.3275 14.9707 0.0727934 -0.669145 3.29961 0.0432717 -0.671704 -19.2343 0.270533 -0.616337 0.778312 0.270526 -0.616345 93.7882 -16.9789 -103.607 30.203 5.0934 74.7659 -54.638 14.5133 -104.232 -111.671 11.2295 -12.8198 -85.9614 -35.3303 82.248 -20.1477 -12.5184 70.9868 53.4131 -32.0015 -113.714 82.5918 -17.7695 -23.6511 40.9205 -3.31267 -3.66278 0.665067 -1.26828 1.94398 
34.4926 8.8758 42.09 5.83852 -11.7631 0.708332 -172.266 -6.71256 96.8113 -21.314 15.4692 2.35447 84.9961 18.7917 -1.8315 20.5835 -8.21414 6.59077 168.904 -9.29812 85.6358 -21.4199 -2.07737 1.97305 81.2627 -13.4616 1.19758 41.5255 -5.1218 -0.863433 0.0895319 5.96573 -90.3333 14.9418 0.0116345 -0.671849 3.27071 -0.0179381 -0.671713 -19.2632 0.213012 -0.6373 0.749504 0.213013 -0.637288 93.9241 -16.6641 -103.398 30.3584 4.66121 74.9368 -55.3921 14.8408 -104.168 -111.653 10.672 -12.4417 -85.6416 -35.3331 82.8277 -20.2348 -11.8031 70.3581 53.2927 -31.7475 -113.652 83.3006 -17.5033 -23.1317 41.5966 -3.25315 -3.62458 0.156826 -1.21787 1.86094 
34.4744 8.86172 42.0842 5.9023 -11.744 0.702024 -172.211 -6.71157 96.8604 -21.3114 15.6813 2.31313 85.0992 18.758 -2.07572 20.6223 -8.85738 7.64848 168.913 -9.276 85.6628 -21.4665 -2.04833 1.98401 81.1702 -13.4642 0.915357 41.8854 -5.35246 -0.334874 0.0785912 5.93312 -90.385 15.0069 -0.0359246 -0.768967 3.33572 -0.0697343 -0.766636 -19.1977 0.196829 -0.744207 0.814962 0.196834 -0.744219 93.8853 -16.0365 -103.771 30.7891 3.81925 75.2892 -54.3081 14.6915 -104.503 -111.338 11.5685 -13.1154 -85.7233 -36.6432 82.9369 -20.0403 -13.5694 70.1918 53.9477 -31.9457 -113.308 81.5619 -18.2713 -24.5503 41.6637 -2.80594 -2.14865 -0.377938 -1.54776 0.698223 
34.4713 8.87037 42.069 5.75176 -11.7939 0.610041 -172.31 -6.90109 96.7133 -21.0854 15.3729 2.33853 85.0438 18.8813 -1.87284 20.772 -8.32628 6.9578 168.867 -9.21484 85.57 -21.6017 -2.38803 1.95264 81.2237 -13.58 0.595362 41.6797 -5.22893 -0.58749 0.100606 5.91622 -90.3939 15.0407 0.00309416 -0.792681 3.36949 -0.031803 -0.792057 -19.1638 0.241176 -0.755098 0.848776 0.241169 -0.755126 93.8507 -15.9308 -103.907 31.6265 2.39357 73.9393 -50.8445 13.4728 -104.966 -111.327 14.4838 -15.1365 -85.7659 -37.4622 83.0187 -19.956 -14.3317 70.1928 54.69 -32.2534 -112.965 81.1099 -18.5373 -25.0036 41.9777 -2.64155 -1.68192 -0.797889 -1.62435 0.460919 
34.4786 8.87589 42.061 5.76124 -11.8019 0.609452 -172.283 -6.94964 96.7473 -21.0459 15.1958 2.31833 85.3956 18.8531 -2.56746 20.4702 -8.80569 7.41092 168.851 -9.18099 85.545 -21.7082 -2.29028 1.97521 81.3319 -13.5283 0.905824 41.6009 -5.16831 -0.766843 0.0534594 5.86922 -90.4187 15.1345 -0.102785 -0.826273 3.46326 -0.139049 -0.820942 -19.0698 0.150285 -0.818969 0.942847 0.150284 -0.818955 93.0943 -16.3031 -105.657 29.0779 7.28403 79.0231 -56.2648 15.8491 -104.53 -107.16 12.7565 -14.6476 -85.8617 -37.5437 82.867 -19.883 -14.9626 71.1045 54.0281 -32.0232 -113.296 80.397 -18.8478 -25.6123 41.4753 -2.29476 -1.03577 -0.774 -1.62445 0.110316 
34.4658 8.86541 42.0947 5.79627 -11.7222 0.652255 -172.19 -6.84227 96.8078 -21.0969 15.8189 2.2525 84.9477 18.882 -1.68387 20.7416 -8.52586 7.24223 168.918 -9.13546 85.6829 -21.7358 -2.05022 1.99766 81.2549 -13.4934 0.780879 41.1579 -4.90535 -1.255 0.0467609 5.89464 -90.4108 15.0835 -0.111961 -0.809277 3.41229 -0.147474 -0.803557 -19.1209 0.136425 -0.805508 0.891781 0.136424 -0.805516 93.284 -16.2029 -105.226 29.9985 5.6499 76.8955 -52.6102 14.6314 -105.173 -110.373 11.882 -13.5002 -85.659 -36.6527 83.0529 -19.6755 -16.3289 74.4136 55.1982 -34.4822 -113.8 77.8989 -18.7653 -26.4337 42.9417 -2.56894 -1.34369 -2.51418 -1.72153 0.723732 
34.5099 8.80943 42.1686 6.00138 -11.7828 0.97728 -172.091 -6.69336 97.1141 -21.4258 15.9086 2.32889 85.2205 18.9538 -1.84036 20.4494 -8.73387 7.27991 168.793 -9.50103 85.8837 -21.4379 -1.75628 2.3319 81.2297 -13.4469 0.987417 40.3916 -4.57697 -1.31139 0.0445112 5.9185 -90.4294 15.0356 -0.125503 -0.844834 3.36445 -0.162567 -0.838503 -19.1686 0.134198 -0.843498 0.844105 0.134196 -0.843506 94.0677 -15.7227 -103.441 29.9045 5.32827 80.6272 -58.7807 17.3846 -104.48 -108.299 8.28675 -11.1708 -85.3769 -35.749 83.3832 -19.9738 -13.3085 75.6004 55.7051 -34.6035 -113.5 82.7017 -17.053 -22.8364 43.4912 -2.78461 -1.75129 -2.92529 -1.71562 1.11324 
34.5487 8.80179 42.2609 6.09161 -11.8315 1.2648 -171.927 -6.57376 97.43 -21.7079 15.5506 2.37285 85.7636 18.9032 -2.66016 20.0713 -9.23369 7.68228 168.853 -9.64782 86.2435 -21.3211 -1.66876 2.50703 80.5414 -13.2852 0.315085 40.9891 -4.815 -1.37887 0.0462852 5.95497 -90.433 14.9627 -0.123543 -0.852319 3.29153 -0.160933 -0.84606 -19.2414 0.138315 -0.850042 0.771257 0.138314 -0.850049 93.0424 -17.3268 -105.316 29.3796 8.0383 80.8349 -52.2685 13.9004 -104.69 -110.664 13.0576 -14.1838 -85.2434 -35.3585 83.5501 -20.1354 -12.6747 79.3514 58.9633 -35.1872 -111.498 82.3839 -16.266 -22.0725 43.9148 -2.9572 -2.55433 -2.98116 -1.45664 1.40964 
34.4252 8.90516 42.3145 5.74134 -11.2616 1.09385 -171.978 -6.30418 97.2665 -21.158 14.5957 2.2372 86.5297 19.1622 -3.64939 19.6295 -10.0945 8.56782 169.155 -8.62996 86.444 -21.9389 -1.08857 2.36422 80.6006 -13.0872 0.726774 41.0792 -4.82852 -1.52504 0.0952984 5.89945 -90.4285 15.0741 -0.024784 -0.85827 3.40284 -0.0625262 -0.856366 -19.1302 0.234301 -0.826055 0.882465 0.234304 -0.826053 93.4667 -16.6934 -104.536 33.4543 4.98124 83.5347 -66.3615 12.2027 -98.6234 -107.567 3.0143 -7.44045 -85.4379 -36.4773 83.4117 -19.291 -17.3052 84.4942 74.1507 -36.9899 -102.269 81.4772 -14.2488 -20.0906 42.7366 -3.25275 -3.19933 -2.18749 -1.43358 1.98319 
